<?xml version="1.0" encoding="UTF-8"?>
<svg width="64px" height="57px" viewBox="0 0 64 57" version="1.1" xmlns="http://www.w3.org/2000/svg" xmlns:xlink="http://www.w3.org/1999/xlink">
    <!-- Generator: Sketch 61 (89581) - https://sketch.com -->
    <title>Fill 167</title>
    <desc>Created with Sketch.</desc>
    <g id="Page-1" stroke="none" stroke-width="1" fill="none" fill-rule="evenodd">
        <g id="Animals_icons" transform="translate(-359.000000, -393.000000)" fill="#BBD16D">
            <path d="M414.669391,393.36624 C413.144391,392.85824 411.618391,392.85824 409.710391,393.49524 C407.933391,394.12924 405.519391,395.14624 401.577391,397.56024 C397.638391,399.97524 393.318391,401.62724 389.757391,403.15224 C386.073391,404.67724 380.099391,406.33224 377.810391,407.22024 C375.652391,408.23824 371.456391,410.77924 370.821391,413.32024 C370.058391,415.86324 370.439391,417.38824 370.439391,419.16724 C370.439391,420.82024 371.327391,421.83624 370.821391,423.61624 C370.312391,425.52324 370.948391,426.41224 371.327391,427.04624 C371.583391,427.68224 371.583391,427.80924 371.583391,427.80924 C371.583391,427.80924 367.898391,428.69824 364.464391,431.11524 C361.161391,433.52924 358.364391,434.16424 359.126391,436.57824 C359.890391,438.99524 361.032391,439.62924 362.179391,440.39124 C363.321391,441.15424 364.083391,441.53524 364.718391,442.67924 C365.230391,443.82324 365.736391,443.44224 366.245391,444.45824 C366.753391,445.47524 367.642391,445.60324 367.642391,445.60324 L368.405391,445.73024 C368.405391,445.73024 367.769391,444.84024 367.388391,444.20524 C367.134391,443.44224 367.134391,443.06024 367.134391,443.06024 L368.152391,443.44224 C368.152391,443.44224 368.405391,444.71324 369.294391,445.09324 C370.312391,445.60324 369.804391,444.45824 369.294391,443.56824 C368.915391,442.80724 368.152391,440.90124 367.898391,440.26524 C367.642391,439.50324 367.388391,439.12124 369.167391,438.23224 C371.075391,437.21424 372.345391,436.96024 374.634391,435.30724 C376.794391,433.65624 377.683391,433.01924 378.446391,432.00424 C379.208391,430.86024 379.337391,430.73124 379.337391,430.73124 C379.337391,430.73124 381.749391,430.60524 381.749391,431.74924 C381.749391,432.89324 381.114391,434.16424 380.989391,436.45224 C380.734391,438.74024 380.861391,441.40924 380.861391,443.31524 C380.861391,445.34824 380.353391,446.74824 380.480391,447.50824 C380.605391,448.39924 380.226391,448.90724 380.989391,449.16024 C381.749391,449.54424 385.818391,449.28924 387.214391,449.16024 C388.614391,449.16024 391.411391,448.78124 392.429391,448.78124 C393.443391,448.65224 394.333391,448.78124 393.443391,448.27124 C392.554391,447.76324 390.900391,447.50824 390.265391,447.00124 C389.632391,446.61924 388.487391,444.96724 388.614391,443.95224 C388.614391,442.80724 389.503391,440.13824 389.632391,438.74024 C389.632391,437.34224 389.632391,436.07024 389.632391,436.07024 L390.140391,436.96024 L389.884391,435.81724 L390.140391,436.19924 L389.757391,434.92624 L390.265391,435.56224 L389.757391,434.29224 L390.011391,434.67124 L389.632391,433.52924 L390.011391,434.03724 L389.376391,432.63824 C389.376391,432.63824 389.503391,432.25824 389.632391,431.49424 C389.757391,430.60524 389.503391,430.09724 389.249391,429.20824 C389.122391,428.31924 389.632391,426.53924 389.632391,425.52324 C389.632391,424.37724 389.376391,423.61624 389.376391,423.61624 C389.376391,423.61624 391.665391,423.86924 393.443391,422.85324 C395.224391,421.71024 395.859391,420.94724 395.859391,420.94724 C395.859391,420.94724 398.654391,420.05524 399.798391,419.54724 C401.070391,419.04024 402.212391,418.53024 402.212391,418.53024 L403.611391,418.91424 C403.611391,418.91424 401.450391,423.36124 400.943391,424.50524 C400.433391,425.52324 401.195391,426.41224 401.577391,429.20824 C401.958391,432.00424 402.976391,435.81724 402.976391,437.46924 C403.101391,439.12124 403.866391,440.13824 402.595391,439.75724 C401.195391,439.37624 399.288391,439.37624 399.034391,439.75724 C398.780391,440.01224 398.021391,440.51724 398.400391,441.79024 C398.909391,443.06024 399.288391,443.31524 400.052391,443.69724 C400.816391,444.20524 402.083391,445.60324 403.611391,444.84024 C405.263391,444.07824 407.804391,442.55224 408.187391,441.66224 C408.693391,440.77224 408.948391,439.88324 409.202391,438.35824 C409.583391,436.96024 409.710391,436.45224 409.710391,436.45224 C409.710391,436.45224 410.474391,437.59524 410.474391,438.61324 C410.474391,439.62924 410.474391,440.90124 410.855391,442.04624 C411.236391,443.06024 411.618391,443.44224 411.618391,443.44224 C411.618391,443.44224 410.347391,444.96724 410.474391,445.47524 C410.728391,446.11124 411.111391,446.61924 412.380391,446.61924 C413.652391,446.74824 415.431391,447.00124 416.193391,446.61924 C416.956391,446.11124 417.593391,445.09324 417.083391,443.56824 C416.704391,442.04624 415.302391,441.02724 415.302391,438.99524 C415.302391,436.96024 416.068391,434.79924 416.068391,434.79924 L415.687391,435.30724 L415.814391,433.91124 L415.558391,434.03724 L415.939391,432.25824 L415.431391,433.40124 L415.431391,431.74924 L415.302391,432.13024 L415.939391,430.47824 L414.796391,431.49424 L415.558391,429.58924 L415.302391,429.84224 L415.558391,428.57224 L415.302391,428.95324 L415.558391,427.30124 L415.302391,427.42724 L415.431391,425.77624 L414.921391,426.28424 L415.177391,425.13924 L414.921391,425.26824 L414.921391,424.50524 L414.796391,423.36124 L414.413391,423.99624 L414.669391,422.59824 L414.161391,422.98024 L414.284391,421.32824 L413.779391,421.96324 L413.779391,420.43724 L413.396391,419.92924 C413.396391,419.92924 413.017391,417.13324 413.525391,415.73424 C414.161391,414.46424 415.177391,412.43124 415.177391,412.43124 C415.177391,412.43124 418.228391,411.16124 418.989391,410.77924 C419.751391,410.39824 419.751391,410.01624 419.878391,409.50824 C420.007391,408.99924 420.388391,408.36524 420.388391,408.36524 C420.388391,408.36524 420.517391,407.72824 420.388391,407.09224 C420.261391,406.45824 420.132391,405.94824 420.132391,405.94824 C420.132391,405.94824 420.517391,405.44024 420.642391,404.80424 C420.896391,404.17024 421.279391,403.40724 421.784391,402.89724 C422.167391,402.38924 422.929391,402.26324 421.784391,400.23024 C420.767391,398.19724 419.499391,396.92624 419.499391,396.92624 C417.593391,395.02024 416.068391,393.87624 414.669391,393.36624 Z" id="Fill-167"></path>
        </g>
    </g>
</svg>