<?xml version="1.0" encoding="UTF-8"?>
<svg width="81px" height="65px" viewBox="0 0 81 65" version="1.1" xmlns="http://www.w3.org/2000/svg" xmlns:xlink="http://www.w3.org/1999/xlink">
    <!-- Generator: Sketch 61 (89581) - https://sketch.com -->
    <title>Path</title>
    <desc>Created with Sketch.</desc>
    <g id="Page-1" stroke="none" stroke-width="1" fill="none" fill-rule="evenodd">
        <g id="Animals_icons" transform="translate(-435.000000, -447.000000)" fill="#BBD16D">
            <path d="M471.342,502.517 C471.342,502.517 468.514,501.683 470.754,491.054 C470.754,491.054 474.995,485.009 474.995,483.03 C474.995,483.03 478.504,481.466 478.648,482.822 C478.648,482.822 479.707,488.97 480.415,490.322 C480.415,490.322 481.12,493.661 480.415,496.264 C480.415,496.264 478.53,496.89 479,498.14 C479,498.14 472.993,497.516 472.402,499.287 C472.402,499.287 471.223,500.955 471.342,502.517 Z M440.708,490.01 C440.708,490.01 442.477,487.93 442.83,486.47 C442.83,486.47 444.125,490.638 441.062,497.932 C441.062,497.932 437.763,507.418 440.119,510.019 C440.119,510.019 444.595,511.063 450.84,510.019 C450.84,510.019 453.906,510.645 451.666,507.626 C451.666,507.626 448.601,506.165 448.601,502.623 C448.601,502.623 447.307,493.45 454.729,489.282 C454.729,489.282 458.029,487.408 458.264,485.948 C458.264,485.948 462.269,487.824 461.799,495.537 C461.799,495.537 459.089,502.101 461.328,505.435 C461.328,505.435 462.269,506.687 462.269,508.353 C462.269,508.353 462.388,511.584 470.045,509.502 C470.045,509.502 473.345,508.666 473.58,507.729 C473.58,507.729 474.523,510.231 477.585,508.458 C477.585,508.458 480.06,508.25 480.415,505.747 C480.415,505.747 482.533,504.393 483.123,504.185 C483.123,504.185 482.655,505.957 481.947,507.311 C481.947,507.311 479.825,509.603 482.533,510.752 C482.533,510.752 488.19,511.481 489.722,510.752 C489.722,510.752 493.612,511.481 493.729,509.502 C493.729,509.502 493.492,507.626 491.843,506.479 C491.843,506.479 491.372,504.707 492.08,500.641 C492.08,500.641 492.314,496.472 491.726,493.661 C491.726,493.661 491.726,483.24 491.607,480.216 C491.607,480.216 493.963,482.198 494.436,480.216 C494.436,480.216 495.849,477.299 495.849,475.945 C495.849,475.945 497.027,476.257 497.027,478.549 C497.027,478.549 498.794,479.693 502.093,481.049 C502.093,481.049 506.215,486.366 507.513,482.614 C507.513,482.614 509.044,486.99 509.044,495.432 C509.044,495.432 509.752,500.433 510.458,503.039 C510.458,503.039 511.989,508.666 509.163,509.813 C509.163,509.813 507.748,511.063 510.342,511.376 C510.342,511.376 513.759,512.731 513.759,503.767 C513.759,503.767 513.169,492.619 514.112,488.866 C514.112,488.866 515.408,478.756 514.818,476.466 C514.818,476.466 517.528,467.399 514.346,465.107 C514.346,465.107 514.112,457.08 504.921,454.058 C504.921,454.058 497.697,449.158 493.297,448.637 C493.297,448.637 487.248,446.973 483.476,448.013 C483.476,448.013 470.517,448.225 464.156,447.494 C464.156,447.494 456.968,446.452 451.194,452.392 C451.194,452.392 443.654,460.938 442.477,466.775 C442.477,466.775 443.3,477.716 442.711,479.591 C442.711,479.591 442.358,487.408 435.877,491.682 C435.877,491.682 436.702,493.869 440.708,490.01 Z" id="Fill-171"></path>
        </g>
    </g>
</svg>