<?xml version="1.0" encoding="UTF-8"?>
<svg width="77px" height="40px" viewBox="0 0 77 40" version="1.1" xmlns="http://www.w3.org/2000/svg" xmlns:xlink="http://www.w3.org/1999/xlink">
    <!-- Generator: Sketch 61 (89581) - https://sketch.com -->
    <title>Fill 152</title>
    <desc>Created with Sketch.</desc>
    <g id="Page-1" stroke="none" stroke-width="1" fill="none" fill-rule="evenodd">
        <g id="Animals_icons" transform="translate(-161.000000, -195.000000)" fill="#BBD16D">
            <path d="M228.233,195.727 C229.627,196.156 231.009,196.345 231.944,197.26 C232.254,197.566 232.442,198.007 232.754,198.328 C234.093,199.705 236.061,200.433 237.146,201.952 C237.146,202.08 237.146,202.207 237.146,202.335 C236.564,203.418 236.929,205.444 236.037,206.217 C235.804,206.361 235.166,206.309 235.013,206.601 C234.862,206.891 235.135,207.346 235.098,207.708 C235.042,208.273 234.122,209.142 233.606,209.287 C232.548,209.583 231.623,209.051 230.919,208.689 C230.596,208.523 230.39,208.218 230.067,208.178 C229.13,208.063 228.399,208.895 227.764,209.287 C227.353,209.54 226.932,209.828 226.486,210.14 C225.653,210.717 224.39,211.016 223.884,211.758 C223.516,212.301 223.553,213.394 223.244,213.935 C223.016,214.332 222.484,214.542 222.179,214.829 C221.775,215.207 221.229,215.841 221.069,216.492 C220.974,216.881 221.091,217.318 220.984,217.773 C220.867,218.274 220.54,218.813 220.302,219.308 C220.143,219.637 219.83,220.121 219.535,220.46 C219.241,220.793 218.752,221.081 218.64,221.439 C218.401,222.195 218.71,223.482 218.725,224.382 C218.742,225.392 218.52,226.45 218.596,227.365 C218.626,227.723 218.775,228.078 218.811,228.474 C218.861,229.069 218.714,229.736 219.021,230.223 C219.873,230.457 220.932,230.333 221.709,230.693 C221.999,230.825 222.187,231.176 222.392,231.419 C222.74,231.826 223.299,232.33 222.903,233.165 C222.574,233.861 221.051,234.123 220.003,234.189 C218.93,234.257 217.407,234.471 216.208,234.274 C215.829,234.213 215.678,233.879 215.228,233.761 C214.629,233.609 213.84,233.751 213.394,233.593 C212.948,233.432 212.24,232.699 211.944,232.312 C211.708,232.003 211.391,231.453 211.305,231.075 C211.206,230.641 211.336,230.271 211.262,229.839 C211.195,229.441 210.848,229.009 210.792,228.561 C210.686,227.685 210.941,226.904 210.964,226.088 C211.007,224.536 211.078,222.827 210.75,221.439 C209.58,221.725 208.216,221.687 206.786,221.95 C205.902,222.113 204.916,222.109 204.013,222.164 C201.147,222.339 198.703,221.674 196.764,220.841 C194.956,220.066 193.326,218.987 191.818,217.942 C190.993,218.412 190.363,219.227 189.643,219.988 C188.323,221.386 186.825,222.801 185.592,224.339 C184.975,225.109 184.245,225.979 183.972,226.984 C183.883,227.306 183.742,227.758 183.759,228.049 C183.768,228.235 183.905,228.451 183.972,228.73 C184.148,229.463 184.448,230.186 185.123,230.395 C185.75,230.587 186.466,230.463 186.999,230.607 C187.469,230.734 188.389,231.204 188.62,231.673 C188.817,232.076 188.906,232.906 188.833,233.337 C188.759,233.767 188.251,234.352 187.895,234.486 C187.477,234.647 186.8,234.522 186.317,234.701 L186.061,234.701 C185.748,234.629 185.138,234.629 184.824,234.701 C183.871,234.701 182.92,234.701 181.968,234.701 C181.711,234.593 181.292,234.654 181.029,234.53 C180.727,234.389 180.687,234.165 180.347,234.146 C179.515,234.098 178.586,234.503 177.532,234.274 C177.188,234.199 176.936,233.805 176.594,233.593 C176.172,233.328 175.738,233.194 175.528,232.996 C174.507,232.024 174.669,229.678 174.975,227.836 C175.238,226.234 175.2,224.415 175.741,223.401 C176.241,222.465 177.177,222.13 178.044,221.353 C178.906,220.58 179.218,219.738 179.536,218.454 C179.823,217.302 180.093,216.061 180.261,214.787 C180.433,213.496 180.723,212.116 180.389,210.864 C179.851,210.949 179.75,211.474 179.409,211.758 C179.104,212.254 178.725,212.63 178.556,213.124 C178.091,214.484 177.674,215.921 177.191,217.344 C176.703,218.79 176.39,220.304 175.956,221.695 C175.557,222.966 174.72,224.227 173.865,225.191 C172.944,226.232 171.799,226.966 170.412,227.365 C169.894,227.516 169.248,227.527 168.663,227.58 C168.108,227.629 167.501,227.784 166.915,227.794 C166.315,227.803 165.589,227.612 165.081,227.409 C164.272,227.085 163.319,226.446 162.608,225.788 C161.915,225.148 160.867,224.43 161.286,223.229 C161.965,223.055 162.678,223.257 163.375,223.102 C164.044,222.953 164.461,222.516 165.081,222.505 C165.506,222.498 165.914,222.686 166.317,222.846 C166.711,223.003 167.15,223.109 167.47,223.273 C167.971,223.531 168.344,224.073 168.962,224.211 C170.788,224.615 171.787,223.006 172.331,221.909 C173.633,219.28 173.91,215.549 174.975,212.739 C175.686,210.863 176.543,209.121 177.788,207.708 C178.991,206.342 180.484,205.087 182.309,204.34 C183.092,204.019 183.968,203.762 184.824,203.488 C185.673,203.214 186.656,202.964 187.596,202.891 C189.794,202.719 191.963,202.986 193.949,203.146 C197.148,203.404 200.642,203.327 203.671,203.571 C205.119,203.69 206.526,204.118 207.936,203.828 C208.845,203.643 209.651,203.047 210.452,202.591 C211.236,202.144 212.103,201.713 213.009,201.398 C214.943,200.728 217.18,201.072 218.725,199.565 C217.998,197.535 219.451,195.537 221.582,195.769 C222.08,195.821 222.555,196.256 223.116,196.28 C223.747,196.31 225.082,195.755 225.59,195.727 C226.471,195.727 227.353,195.727 228.233,195.727 Z" id="Fill-152"></path>
        </g>
    </g>
</svg>